<mxfile host="app.diagrams.net" modified="2023-10-05T10:15:31.829Z" agent="Mozilla/5.0 (Windows NT 10.0; Win64; x64) AppleWebKit/537.36 (KHTML, like Gecko) Chrome/117.0.0.0 Safari/537.36" version="22.0.2" etag="57uoyg0DIzJ0CcPAenPi" type="github">
  <diagram name="Page-1" id="qthcOpiSVAkRsn3g1i4C">
    <mxGraphModel>
      <root>
        <mxCell id="0" />
        <mxCell id="1" parent="0" />
      </root>
    </mxGraphModel>
  </diagram>
</mxfile>
